<svg xmlns="http://www.w3.org/2000/svg" viewBox="0 0 512 512" id="Cleaning">
  <path d="M376 424h-8v-4a27.841 27.841 0 0 0-3.44-13.43A7.993 7.993 0 0 0 368 400v-16a24.032 24.032 0 0 0-24-24h-16V32a24 24 0 0 0-48 0v328h-16a24.032 24.032 0 0 0-24 24v16a7.993 7.993 0 0 0 3.44 6.57A27.841 27.841 0 0 0 240 420v4a80.093 80.093 0 0 0 80 80h120a8 8 0 0 0 8-8 72.083 72.083 0 0 0-72-72ZM296 32a8 8 0 0 1 16 0v32h-16Zm0 48h16v280h-16Zm56 408h-32a64.072 64.072 0 0 1-64-64v-4a12.01 12.01 0 0 1 12-12h4v16a8 8 0 0 0 16 0v-16h8v32a8 8 0 0 0 16 0v-32h8v24a8 8 0 0 0 16 0v-24h4a12.01 12.01 0 0 1 12 12Zm0-96h-96v-8a8.011 8.011 0 0 1 8-8h80a8.011 8.011 0 0 1 8 8Zm16 96v-16h16a8 8 0 0 0 0-16h-16v-16h8a56.089 56.089 0 0 1 55.43 48Z" fill="#ffffff" class="color000000 svgShape"></path>
  <path d="M328 448a8 8 0 0 0-8 8v8a8 8 0 0 0 16 0v-8a8 8 0 0 0-8-8zm-88-136h-16v-32a48.051 48.051 0 0 0-48-48h-48a48.051 48.051 0 0 0-48 48v32H64a8 8 0 0 0-8 8v32a8 8 0 0 0 8 8h8.43l7.58 136.44A8.005 8.005 0 0 0 88 504h128a8.005 8.005 0 0 0 7.99-7.56L231.57 360H240a8 8 0 0 0 8-8v-32a8 8 0 0 0-8-8zM96 280a32.042 32.042 0 0 1 32-32h48a32.042 32.042 0 0 1 32 32v32H96zm112.43 208H95.57l-7.11-128h127.08zM232 344H72v-16h160z" fill="#ffffff" class="color000000 svgShape"></path>
  <path d="M112 392h40a8 8 0 0 0 0-16h-40a8 8 0 0 0 0 16zm64 0h8a8 8 0 0 0 0-16h-8a8 8 0 0 0 0 16zM96 216a40 40 0 1 0-40-40 40.045 40.045 0 0 0 40 40zm0-64a24 24 0 1 1-24 24 24.028 24.028 0 0 1 24-24zm80 0a64 64 0 1 0-64-64 64.072 64.072 0 0 0 64 64zm0-112a48 48 0 1 1-48 48 48.054 48.054 0 0 1 48-48zm8 152a24 24 0 1 0 24-24 24.028 24.028 0 0 0-24 24zm32 0a8 8 0 1 1-8-8 8.009 8.009 0 0 1 8 8z" fill="#ffffff" class="color000000 svgShape"></path>
</svg>
