<svg xmlns="http://www.w3.org/2000/svg" enable-background="new 0 0 48 48" viewBox="0 0 48 48" id="Cpu">
  <path d="M9.142,4.12C8.416,4.774,7.667,5.401,6.828,5.935c-0.554,0.343-0.915-0.387-0.72-0.694c0.829-1.385,1.834-2.632,2.965-3.773
	c0.499-0.608,1.365-0.602,1.858,0.008c1.119,1.15,2.114,2.4,2.94,3.785c0.319,0.638-0.421,0.901-0.721,0.693
	c-0.866-0.552-1.636-1.207-2.38-1.891c0.333,2.567,0.202,5.14-0.351,7.701c-0.052,0.316-0.847,0.648-1,0
	C8.823,9.23,8.796,6.666,9.142,4.12z M20.827,5.936c0.848-0.535,1.613-1.172,2.352-1.832c-0.332,2.553-0.215,5.113,0.336,7.66
	c0.073,0.338,0.831,0.671,1,0c0.599-2.555,0.585-5.117,0.301-7.691c0.751,0.66,1.529,1.302,2.383,1.838
	c0.542,0.329,0.912-0.42,0.718-0.696c-0.831-1.382-1.854-2.611-3.001-3.732c-0.233-0.236-0.558-0.459-0.911-0.458
	c-0.373-0.002-0.689,0.224-0.929,0.469c-1.131,1.132-2.153,2.36-2.969,3.747C19.791,5.781,20.558,6.14,20.827,5.936z M39.051,17.005
	l-0.162,27.934c0.003,0.488-0.394,0.885-0.882,0.882c-8.495-0.056-16.994-0.156-25.498-0.325c-2.333-0.064-3.072-0.362-2.679-0.616
	c-0.52-0.033-0.603-26.776-0.729-27.858c-0.008-0.478,0.373-0.872,0.85-0.88c0.014-0.019,28.079-0.148,28.099-0.162
	C38.614,15.975,39.069,16.443,39.051,17.005z M37.12,44.069c-0.086-8.688-0.103-17.384-0.07-26.091
	c-8.73,0.008-17.46-0.008-26.191-0.073c-0.173,8.278,0.167,18.927-0.571,26.806c0.476-0.116,1.235-0.203,2.22-0.216
	C20.707,44.295,28.912,44.162,37.12,44.069z M34.99,27.664c0,0-0.121,8.735-0.121,8.735c0.31,2.727-1.593,5.305-4.438,5.314
	c-1.513,0.004-9.311-0.238-10.968-0.277c-0.787-0.036-1.293-0.135-1.567-0.257c-2.07,0.454-4.455-1.769-4.521-3.99
	c0,0-0.104-4.393-0.104-4.393c-0.051-1.997-0.164-5.697-0.151-7.656c-0.07-3.395,2.966-5.427,6.149-5.09
	c3.657-0.005,7.253-0.094,10.971-0.045c1.852,0.071,3.538,1.284,4.277,2.927C35.222,24.278,34.933,26.231,34.99,27.664z
	 M33.085,36.41c-0.074-2.921-0.017-5.856-0.036-8.745c-0.097-1.062,0.187-2.952-0.328-3.895c-0.464-1.012-1.498-1.736-2.582-1.767
	c-3.51-0.053-7.296,0.005-10.878-0.04c0,0-1.092-0.013-1.092-0.013c-1.742-0.042-3.355,1.426-3.295,3.199
	c-0.04,0.683-0.036,2.563-0.065,3.272c-0.01,2.172-0.101,6.544-0.168,8.714c-0.011,1.208,0.813,2.389,1.973,2.959
	c0.531,0.271,1.015,0.438,1.304,0.588c0.298-0.133,0.827-0.234,1.546-0.247c0,0,8.74-0.244,8.74-0.244
	c1.791,0.008,4.093,0.114,4.737-1.922C33.14,37.744,33.1,37.195,33.085,36.41z M41.91,5.173c-0.825-1.371-1.852-2.583-2.999-3.687
	c-0.502-0.589-1.345-0.582-1.834,0.021c-1.115,1.127-2.117,2.348-2.936,3.717c-0.193,0.303,0.166,1.016,0.718,0.696
	c0.821-0.516,1.558-1.121,2.271-1.755c-0.292,2.534-0.09,5.074,0.455,7.599c0.13,0.603,0.949,0.314,1-0.001
	c0.612-2.569,0.5-5.161,0.183-7.743c0.766,0.665,1.551,1.304,2.426,1.85C41.491,6.071,42.204,5.72,41.91,5.173z" fill="#ffffff" class="color000000 svgShape"></path>
</svg>
