<svg xmlns="http://www.w3.org/2000/svg" viewBox="0 0 48 48" id="Heating">
  <path d="M14.56 20.23a1.88 1.88 0 0 1 1.89 1.88v6.61h3.78v-6.61a1.88 1.88 0 0 1 1.88-1.88h3.78a1.88 1.88 0 0 1 1.88 1.88v6.61h3.78v-6.61a1.88 1.88 0 0 1 1.89-1.88h3.77a1.89 1.89 0 0 1 1.89 1.88v6.61h.9a.95.95 0 1 1 0 1.89h-.9V41a1.89 1.89 0 0 1-1.89 1.89h-3.77A1.88 1.88 0 0 1 31.55 41V30.61h-3.78V41a1.88 1.88 0 0 1-1.88 1.89h-3.78A1.88 1.88 0 0 1 20.23 41V30.61h-3.78V41a1.88 1.88 0 0 1-1.89 1.89h-3.77A1.89 1.89 0 0 1 8.9 41V30.61H8a1 1 0 0 1-1-.95 1 1 0 0 1 1-.94h.9v-6.61a1.89 1.89 0 0 1 1.89-1.88Zm-.94 1.88h-1.89a1 1 0 0 0-.94.95V40a.94.94 0 0 0 .94.94h1.89a.94.94 0 0 0 .94-.94V23a1 1 0 0 0-.94-.89Zm11.32 0h-1.88a1 1 0 0 0-.95.95V40a1 1 0 0 0 .95.94h1.88a1 1 0 0 0 .95-.94V23a1 1 0 0 0-.95-.89Zm11.33 0h-1.89a1 1 0 0 0-.94.95V40a.94.94 0 0 0 .94.94h1.89a.94.94 0 0 0 .94-.94V23a1 1 0 0 0-.94-.89ZM17 5.59a.86.86 0 0 1-.35 1.16 2 2 0 0 0 0 3.68 3.78 3.78 0 0 1 2.17 3.34 3.71 3.71 0 0 1-2 3.23l-.21.12a.86.86 0 1 1-.92-1.46 2.1 2.1 0 0 0 1.29-1.85 2.08 2.08 0 0 0-1.27-1.83 3.7 3.7 0 0 1-2.19-3.36 3.64 3.64 0 0 1 2-3.23l.21-.12a.86.86 0 0 1 1.27.32Zm13.84 0a.86.86 0 0 1-.35 1.16 2 2 0 0 0 0 3.68 3.78 3.78 0 0 1 2.17 3.34 3.74 3.74 0 0 1-2 3.23l-.21.12a.86.86 0 1 1-.92-1.46 2.12 2.12 0 0 0 1.29-1.85 2.1 2.1 0 0 0-1.27-1.83 3.66 3.66 0 0 1-.21-6.6l.21-.11a.86.86 0 0 1 1.16.36Zm-6.92 0a.86.86 0 0 1-.35 1.16 2 2 0 0 0 0 3.68 3.78 3.78 0 0 1 2.17 3.34 3.71 3.71 0 0 1-2 3.23l-.21.12a.86.86 0 0 1-.89-1.48A2.1 2.1 0 0 0 24 13.77a2.08 2.08 0 0 0-1.27-1.83 3.71 3.71 0 0 1-2.19-3.36 3.66 3.66 0 0 1 2-3.24l.21-.11a.86.86 0 0 1 1.16.36Z" fill="#ffffff" class="color000000 svgShape"></path>
</svg>
