<svg xmlns="http://www.w3.org/2000/svg" fill="none" viewBox="0 0 24 24" id="steam">
  <g clip-path="url(#clip0_8888_2778)" fill="#000000" class="color000000 svgShape">
    <path fill="#242424" d="M16.5 7.5C15.3954 7.5 14.5 8.39543 14.5 9.5C14.5 10.6046 15.3954 11.5 16.5 11.5C17.6046 11.5 18.5 10.6046 18.5 9.5C18.5 8.39543 17.6046 7.5 16.5 7.5Z" class="color051344 svgShape"></path>
    <path fill="#242424" fill-rule="evenodd" d="M14.1696 4.51761C14.8992 4.17651 15.6948 3.99981 16.5002 4C17.2558 4.00073 18.0038 4.15711 18.6962 4.4594C19.3886 4.76168 20.0113 5.20339 20.5255 5.75697C21.0397 6.31055 21.4343 6.96413 21.6847 7.67696C21.9352 8.38978 22.0361 9.14655 21.9811 9.90009C21.9261 10.6536 21.7165 11.3877 21.3653 12.0567C21.0141 12.7256 20.5288 13.315 19.9398 13.7881C19.3507 14.2613 18.6705 14.6079 17.9415 14.8066C17.3448 14.9691 16.7259 15.0297 16.1109 14.9865L12.4683 17.5079C12.3625 18.3428 11.9953 19.1278 11.4126 19.7469C10.7125 20.4906 9.75434 20.9384 8.73466 20.9983C8.71513 20.9994 8.69557 21 8.676 21H8.50007C7.5776 21 6.68339 20.6813 5.96902 20.0976C5.39783 19.6309 4.96965 19.0179 4.72695 18.3288L2.60582 17.419C2.23828 17.2614 2 16.8999 2 16.5V13C2 12.6534 2.17945 12.3316 2.47427 12.1493C2.76909 11.9671 3.13723 11.9506 3.44721 12.1056L6.41101 13.5875C6.78468 13.358 7.19503 13.1909 7.62605 13.0944C8.04608 13.0002 8.47694 12.9751 8.90199 13.0183L11.026 10.0446C10.961 9.39173 11.0133 8.73129 11.1815 8.09471C11.3873 7.31605 11.7616 6.59209 12.2779 5.97398C12.7943 5.35587 13.44 4.8587 14.1696 4.51761ZM16.4995 6C15.987 5.99993 15.4809 6.11237 15.0167 6.32939C14.5524 6.54645 14.1414 6.86283 13.8128 7.25617C13.4843 7.64951 13.2461 8.11021 13.1151 8.60572C12.9842 9.10124 12.9636 9.61946 13.055 10.1238C13.1031 10.3895 13.0417 10.6634 12.8847 10.8832L10.1577 14.7012C9.91005 15.048 9.46979 15.1997 9.06103 15.0791C8.7367 14.9834 8.39331 14.972 8.06334 15.046C7.73336 15.1199 7.42768 15.2767 7.17518 15.5017C6.86956 15.7739 6.42888 15.8325 6.06279 15.6494L4 14.618V15.8408L5.95418 16.679C6.25566 16.8083 6.47454 17.0772 6.53993 17.3987C6.63187 17.8507 6.87722 18.257 7.23441 18.5488C7.5916 18.8406 8.03868 19 8.49993 19H8.64368C9.14365 18.964 9.61227 18.7415 9.95629 18.376C10.3063 18.0041 10.5009 17.5124 10.5 17.0017L10.5 16.962C10.5 16.6338 10.661 16.3265 10.9308 16.1398L15.2778 13.1308C15.4859 12.9868 15.7408 12.927 15.9911 12.9634C16.4669 13.0328 16.9519 13.0033 17.4158 12.8769C17.8796 12.7505 18.3125 12.5299 18.6874 12.2288C19.0622 11.9277 19.371 11.5527 19.5945 11.127C19.818 10.7013 19.9514 10.2341 19.9864 9.7546C20.0214 9.27508 19.9572 8.79349 19.7978 8.33988C19.6384 7.88627 19.3873 7.47035 19.0601 7.11807C18.7329 6.76579 18.3366 6.48471 17.896 6.29234C17.4555 6.10003 16.9801 6.00052 16.4995 6ZM12.5 16.9995V16.962H11.5L11.5263 17L11.5 17L12.5 16.9995Z" clip-rule="evenodd" class="color051344 svgShape"></path>
  </g>
  <defs>
    <clipPath id="clip0_8888_2778">
      <rect width="24" height="24" fill="#ffffff" class="colorffffff svgShape"></rect>
    </clipPath>
  </defs>
</svg>
